# xmcd CD database file
#
# Track frame offsets:
#	150
#	25578
#	59192
#	91642
#	118119
#	146546
#	173274
#	187238
#	214662
#	231658
#	258258
#	288243
#
# Disc length: 3959 seconds
#
# Revision: 0
# Processed by: cddbd v1.5.1PL2 Copyright (c) Steve Scherf et al.
# Submitted via: CDex 1.51
#
DISCID=ab0f750c
DTITLE=Gilles Renne and Mister Hyde - Ultime Atome
DYEAR=2005
DGENRE=Jazz
TTITLE0=Ultime Atome
TTITLE1=Baroud
TTITLE2=Song for Seb
TTITLE3=Derrière le voile
TTITLE4=Sens interdit
TTITLE5=Quand le chacal dort
TTITLE6=On Tour with J.R.
TTITLE7=In hoc signo vinces
TTITLE8=Le vicomte des 1001 nuits
TTITLE9=Breath Talking Blues
TTITLE10=Funk You
TTITLE11=Smoke on the Water
EXTD=YEAR: 2005
EXTT0=
EXTT1=
EXTT2=
EXTT3=
EXTT4=
EXTT5=
EXTT6=
EXTT7=
EXTT8=
EXTT9=
EXTT10=
EXTT11=
PLAYORDER=
